<svg height="1454" width="720" xmlns="http://www.w3.org/2000/svg">
<rect height="1454" fill="#555" width="720"></rect>
<text fill="#7f7" font-family="Courier New" font-size="12" xml:space="preserve">
<tspan x="10" y="26">11 megabytes installed</tspan>
<tspan x="10" y="42"></tspan>
<tspan x="10" y="58">node_modules</tspan>
<tspan x="10" y="74">├─┬ ajv@4.11.7 </tspan>
<tspan x="10" y="90">│ ├── co@4.6.0 </tspan>
<tspan x="10" y="106">│ └─┬ json-stable-stringify@1.0.1 </tspan>
<tspan x="10" y="122">│   └── jsonify@0.0.0 </tspan>
<tspan x="10" y="138">├── asn1@0.2.3 </tspan>
<tspan x="10" y="154">├── assert-plus@0.2.0 </tspan>
<tspan x="10" y="170">├─┬ assign@0.1.7 </tspan>
<tspan x="10" y="186">│ └─┬ fusing@0.4.0 </tspan>
<tspan x="10" y="202">│   └── emits@1.0.2 </tspan>
<tspan x="10" y="218">├── async@0.6.2 </tspan>
<tspan x="10" y="234">├── asynckit@0.4.0 </tspan>
<tspan x="10" y="250">├── aws-sign2@0.6.0 </tspan>
<tspan x="10" y="266">├── aws4@1.6.0 </tspan>
<tspan x="10" y="282">├─┬ back@1.0.1 </tspan>
<tspan x="10" y="298">│ └── xtend@4.0.1 </tspan>
<tspan x="10" y="314">├─┬ bcrypt-pbkdf@1.0.1 </tspan>
<tspan x="10" y="330">│ └── tweetnacl@0.14.5 </tspan>
<tspan x="10" y="346">├─┬ boom@2.10.1 </tspan>
<tspan x="10" y="362">│ └── hoek@2.16.3 </tspan>
<tspan x="10" y="378">├── caseless@0.12.0 </tspan>
<tspan x="10" y="394">├─┬ color@0.8.0 </tspan>
<tspan x="10" y="410">│ ├── color-convert@0.5.3 </tspan>
<tspan x="10" y="426">│ └─┬ color-string@0.3.0 </tspan>
<tspan x="10" y="442">│   └── color-name@1.1.2 </tspan>
<tspan x="10" y="458">├── colornames@0.0.2 </tspan>
<tspan x="10" y="474">├─┬ colorspace@1.0.1 </tspan>
<tspan x="10" y="490">│ └── text-hex@0.0.0 </tspan>
<tspan x="10" y="506">├─┬ combined-stream@1.0.5 </tspan>
<tspan x="10" y="522">│ └── delayed-stream@1.0.0 </tspan>
<tspan x="10" y="538">├── cryptiles@2.0.5 </tspan>
<tspan x="10" y="554">├─┬ dashdash@1.14.1 </tspan>
<tspan x="10" y="570">│ └── assert-plus@1.0.0 </tspan>
<tspan x="10" y="586">├── debug@0.8.1 </tspan>
<tspan x="10" y="602">├─┬ diagnostics@1.0.1 </tspan>
<tspan x="10" y="618">│ ├─┬ enabled@1.0.2 </tspan>
<tspan x="10" y="634">│ │ └── env-variable@0.0.3 </tspan>
<tspan x="10" y="650">│ └── kuler@0.0.0 </tspan>
<tspan x="10" y="666">├─┬ ecc-jsbn@0.1.1 </tspan>
<tspan x="10" y="682">│ └── jsbn@0.1.1 </tspan>
<tspan x="10" y="698">├── eventemitter3@1.2.0 </tspan>
<tspan x="10" y="714">├── extend@3.0.0 </tspan>
<tspan x="10" y="730">├── extract-github@0.0.5 </tspan>
<tspan x="10" y="746">├── extsprintf@1.0.2 </tspan>
<tspan x="10" y="762">├── forever-agent@0.6.1 </tspan>
<tspan x="10" y="778">├─┬ form-data@2.1.4 </tspan>
<tspan x="10" y="794">│ └─┬ mime-types@2.1.15 </tspan>
<tspan x="10" y="810">│   └── mime-db@1.27.0 </tspan>
<tspan x="10" y="826">├─┬ fusing@0.2.3 </tspan>
<tspan x="10" y="842">│ └─┬ predefine@0.1.2 </tspan>
<tspan x="10" y="858">│   └── extendible@0.1.1 </tspan>
<tspan x="10" y="874">├─┬ getpass@0.1.6 </tspan>
<tspan x="10" y="890">│ └── assert-plus@1.0.0 </tspan>
<tspan x="10" y="906">├─┬ githulk@0.0.7 </tspan>
<tspan x="10" y="922">│ ├── debug@0.7.4 </tspan>
<tspan x="10" y="938">│ └─┬ mana@0.1.41 </tspan>
<tspan x="10" y="954">│   ├─┬ fusing@1.0.0 </tspan>
<tspan x="10" y="970">│   │ └── emits@3.0.0 </tspan>
<tspan x="10" y="986">│   ├── millisecond@0.1.2 </tspan>
<tspan x="10" y="1002">│   └─┬ request@2.81.0 </tspan>
<tspan x="10" y="1018">│     ├─┬ har-validator@4.2.1 </tspan>
<tspan x="10" y="1034">│     │ └── har-schema@1.0.5 </tspan>
<tspan x="10" y="1050">│     ├─┬ hawk@3.1.3 </tspan>
<tspan x="10" y="1066">│     │ └── sntp@1.0.9 </tspan>
<tspan x="10" y="1082">│     ├─┬ http-signature@1.1.1 </tspan>
<tspan x="10" y="1098">│     │ ├─┬ jsprim@1.4.0 </tspan>
<tspan x="10" y="1114">│     │ │ ├── assert-plus@1.0.0 </tspan>
<tspan x="10" y="1130">│     │ │ ├── json-schema@0.2.3 </tspan>
<tspan x="10" y="1146">│     │ │ └── verror@1.3.6 </tspan>
<tspan x="10" y="1162">│     │ └─┬ sshpk@1.13.0 </tspan>
<tspan x="10" y="1178">│     │   ├── assert-plus@1.0.0 </tspan>
<tspan x="10" y="1194">│     │   └── jodid25519@1.0.2 </tspan>
<tspan x="10" y="1210">│     ├── is-typedarray@1.0.0 </tspan>
<tspan x="10" y="1226">│     ├── isstream@0.1.2 </tspan>
<tspan x="10" y="1242">│     ├── json-stringify-safe@5.0.1 </tspan>
<tspan x="10" y="1258">│     ├── oauth-sign@0.8.2 </tspan>
<tspan x="10" y="1274">│     ├── performance-now@0.2.0 </tspan>
<tspan x="10" y="1290">│     ├── qs@6.4.0 </tspan>
<tspan x="10" y="1306">│     ├── safe-buffer@5.0.1 </tspan>
<tspan x="10" y="1322">│     ├── stringstream@0.0.5 </tspan>
<tspan x="10" y="1338">│     ├─┬ tough-cookie@2.3.2 </tspan>
<tspan x="10" y="1354">│     │ └── punycode@1.4.1 </tspan>
<tspan x="10" y="1370">│     ├── tunnel-agent@0.6.0 </tspan>
<tspan x="10" y="1386">│     └── uuid@3.0.1 </tspan>
<tspan x="10" y="1402">└─┬ licenses@0.0.20 </tspan>
<tspan x="10" y="1418">  └─┬ npm-registry@0.1.13 </tspan>
<tspan x="10" y="1434">    └── semver@2.2.1</tspan>
</text>
</svg>
